HIERARCHY
ROOT hip
{
  OFFSET 0 0 0
  CHANNELS 6 Xposition Yposition Zposition Zrotation Yrotation Xrotation
  JOINT abdomen
  {
    OFFSET 0 20.6881 -0.73152
    CHANNELS 3 Zrotation Xrotation Yrotation
    JOINT chest
    {
      OFFSET 0 11.7043 -0.48768
      CHANNELS 3 Zrotation Xrotation Yrotation
      JOINT neck
      {
        OFFSET 0 22.1894 -2.19456
        CHANNELS 3 Zrotation Xrotation Yrotation
        JOINT head
        {
          OFFSET -0.24384 7.07133 1.2192
          CHANNELS 3 Zrotation Xrotation Yrotation
          JOINT leftEye
          {
            OFFSET 4.14528 8.04674 8.04672
            CHANNELS 3 Zrotation Xrotation Yrotation
            End Site
            {
              OFFSET 1 0 0
            }
          }
          JOINT rightEye
          {
            OFFSET -3.6576 8.04674 8.04672
            CHANNELS 3 Zrotation Xrotation Yrotation
            End Site
            {
              OFFSET 1 0 0
            }
          }
        }
      }
      JOINT rCollar
      {
        OFFSET -2.68224 19.2634 -4.8768
        CHANNELS 3 Zrotation Xrotation Yrotation
        JOINT rShldr
        {
          OFFSET -8.77824 -1.95073 1.46304
          CHANNELS 3 Zrotation Xrotation Yrotation
          JOINT rForeArm
          {
            OFFSET -28.1742 -1.7115 0.48768
            CHANNELS 3 Zrotation Xrotation Yrotation
            JOINT rHand
            {
              OFFSET -22.5879 0.773209 7.07136
              CHANNELS 3 Zrotation Xrotation Yrotation
              JOINT rThumb1
              {
                OFFSET -1.2192 -0.487915 3.41376
                CHANNELS 3 Zrotation Xrotation Yrotation
                JOINT rThumb2
                {
                  OFFSET -3.37035 -0.52449 3.41376
                  CHANNELS 3 Zrotation Xrotation Yrotation
                  End Site
                  {
                    OFFSET -1.78271 -1.18214 1.43049
                  }
                }
              }
              JOINT rIndex1
              {
                OFFSET -7.75947 0.938293 5.60832
                CHANNELS 3 Zrotation Xrotation Yrotation
                JOINT rIndex2
                {
                  OFFSET -2.54057 -0.884171 1.56538
                  CHANNELS 3 Zrotation Xrotation Yrotation
                  End Site
                  {
                    OFFSET -1.62519 -0.234802 1.16502
                  }
                }
              }
              JOINT rMid1
              {
                OFFSET -8.24714 1.18213 3.41376
                CHANNELS 3 Zrotation Xrotation Yrotation
                JOINT rMid2
                {
                  OFFSET -3.10165 -0.590103 1.0647
                  CHANNELS 3 Zrotation Xrotation Yrotation
                  End Site
                  {
                    OFFSET -2.48547 -0.328903 0.83742
                  }
                }
              }
              JOINT rRing1
              {
                OFFSET -8.82822 0.546677 1.51678
                CHANNELS 3 Zrotation Xrotation Yrotation
                JOINT rRing2
                {
                  OFFSET -2.60934 -0.819778 -0.0198488
                  CHANNELS 3 Zrotation Xrotation Yrotation
                  End Site
                  {
                    OFFSET -2.33842 -0.294052 0.168128
                  }
                }
              }
              JOINT rPinky1
              {
                OFFSET -8.27202 -0.0477905 -0.4584
                CHANNELS 3 Zrotation Xrotation Yrotation
                JOINT rPinky2
                {
                  OFFSET -1.82734 -0.647385 -0.700984
                  CHANNELS 3 Zrotation Xrotation Yrotation
                  End Site
                  {
                    OFFSET -1.69225 -0.51767 -0.607171
                  }
                }
              }
            }
          }
        }
      }
      JOINT lCollar
      {
        OFFSET 2.68224 19.2634 -4.8768
        CHANNELS 3 Zrotation Xrotation Yrotation
        JOINT lShldr
        {
          OFFSET 8.77824 -1.95073 1.46304
          CHANNELS 3 Zrotation Xrotation Yrotation
          JOINT lForeArm
          {
            OFFSET 28.1742 -1.7115 0.48768
            CHANNELS 3 Zrotation Xrotation Yrotation
            JOINT lHand
            {
              OFFSET 22.5879 0.773209 7.07136
              CHANNELS 3 Zrotation Xrotation Yrotation
              JOINT lThumb1
              {
                OFFSET 1.2192 -0.487915 3.41376
                CHANNELS 3 Zrotation Xrotation Yrotation
                JOINT lThumb2
                {
                  OFFSET 3.37035 -0.52449 3.41376
                  CHANNELS 3 Zrotation Xrotation Yrotation
                  End Site
                  {
                    OFFSET 1.78271 -1.18214 1.43049
                  }
                }
              }
              JOINT lIndex1
              {
                OFFSET 7.75947 0.938293 5.60832
                CHANNELS 3 Zrotation Xrotation Yrotation
                JOINT lIndex2
                {
                  OFFSET 2.54057 -0.884171 1.56538
                  CHANNELS 3 Zrotation Xrotation Yrotation
                  End Site
                  {
                    OFFSET 1.62519 -0.234802 1.16502
                  }
                }
              }
              JOINT lMid1
              {
                OFFSET 8.24714 1.18213 3.41376
                CHANNELS 3 Zrotation Xrotation Yrotation
                JOINT lMid2
                {
                  OFFSET 3.10165 -0.590103 1.0647
                  CHANNELS 3 Zrotation Xrotation Yrotation
                  End Site
                  {
                    OFFSET 2.48547 -0.328903 0.83742
                  }
                }
              }
              JOINT lRing1
              {
                OFFSET 8.82822 0.546677 1.51678
                CHANNELS 3 Zrotation Xrotation Yrotation
                JOINT lRing2
                {
                  OFFSET 2.60934 -0.819778 -0.0198488
                  CHANNELS 3 Zrotation Xrotation Yrotation
                  End Site
                  {
                    OFFSET 2.33842 -0.294052 0.168128
                  }
                }
              }
              JOINT lPinky1
              {
                OFFSET 8.27202 -0.0477905 -0.4584
                CHANNELS 3 Zrotation Xrotation Yrotation
                JOINT lPinky2
                {
                  OFFSET 1.82734 -0.647385 -0.700984
                  CHANNELS 3 Zrotation Xrotation Yrotation
                  End Site
                  {
                    OFFSET 1.69225 -0.51767 -0.607171
                  }
                }
              }
            }
          }
        }
      }
    }
  }
  JOINT rButtock
  {
    OFFSET -8.77824 4.35084 1.2192
    CHANNELS 3 Zrotation Xrotation Yrotation
    JOINT rThigh
    {
      OFFSET 0 -1.70687 -2.19456
      CHANNELS 3 Zrotation Xrotation Yrotation
      JOINT rShin
      {
        OFFSET 0 -36.8199 0.73152
        CHANNELS 3 Zrotation Xrotation Yrotation
        JOINT rFoot
        {
          OFFSET 0.73152 -45.1104 -5.12064
          CHANNELS 3 Zrotation Xrotation Yrotation
          End Site
          {
            OFFSET -1.1221 -3.69964 12.103
          }
        }
      }
    }
  }
  JOINT lButtock
  {
    OFFSET 8.77824 4.35084 1.2192
    CHANNELS 3 Zrotation Xrotation Yrotation
    JOINT lThigh
    {
      OFFSET 0 -1.70687 -2.19456
      CHANNELS 3 Zrotation Xrotation Yrotation
      JOINT lShin
      {
        OFFSET 0 -36.8199 0.73152
        CHANNELS 3 Zrotation Xrotation Yrotation
        JOINT lFoot
        {
          OFFSET -0.73152 -45.1104 -5.12064
          CHANNELS 3 Zrotation Xrotation Yrotation
          End Site
          {
            OFFSET 1.1221 -3.69964 12.103
          }
        }
      }
    }
  }
}
MOTION
Frames:	7
Frame Time:	0.03333
0.0 0.0 0.0 0.0 0.0 0.0 0.0 0.0 0.0 0.0 0.0 0.0 0.0 0.0 0.0 0.0 0.0 0.0 0.0 0.0 0.0 0.0 0.0 0.0 0.0 0.0 0.0 0.0 0.0 0.0 0.0 0.0 0.0 0.0 0.0 0.0 0.0 0.0 0.0 0.0 0.0 0.0 0.0 0.0 0.0 0.0 0.0 0.0 0.0 0.0 0.0 0.0 0.0 0.0 0.0 0.0 0.0 0.0 0.0 0.0 0.0 0.0 0.0 0.0 0.0 0.0 0.0 0.0 0.0 0.0 0.0 0.0 0.0 0.0 0.0 0.0 0.0 0.0 0.0 0.0 0.0 0.0 0.0 0.0 0.0 0.0 0.0 0.0 0.0 0.0 0.0 0.0 0.0 0.0 0.0 0.0 0.0 0.0 0.0 0.0 0.0 0.0 0.0 0.0 0.0 0.0 0.0 0.0 0.0 0.0 0.0 0.0 0.0 0.0 0.0 0.0 0.0 0.0 0.0 0.0 0.0 0.0 0.0 0.0 0.0 0.0 0.0 0.0 0.0 0.0 0.0 0.0
0.6348999999999999 57.2603 -1.2970000000000002 171.942403 1.516078 -177.403673 -15.43301 11.003703 -77.004699 8.684305 1.832322 82.035311 0.270594 35.431459 164.41544 -10.085076 44.767944 161.901867 -0.00012 0.0 -0.001061 0.000536 0.0 0.001976 -155.41704 -2.951233 161.7192 -27.308109 -19.115222 -17.865658 93.824535 35.242514 -108.008634 -173.317881 46.411359 148.345759 -85.8293 38.631175 47.955518 178.799067 -43.984233 76.622183 1.506623 -2.484677 -0.828285 -174.957362 -31.568924 107.374634 23.901617 -61.334234 1.397193 21.876576 -49.986805 1.834657 -70.379254 -72.130436 -87.279814 -149.849575 -27.498845 -179.907099 -6.261565 -14.051969 -5.883918 -85.900088 -53.736159 -85.6868 45.624983 -86.317008 67.243478 -153.75188 -9.219108 137.353444 3.590815 -47.165945 -96.879251 7.395629 -6.856877 3.377066 17.201665 15.60052 -4.929079 100.237751 2.771912 -90.921857 160.01706 -33.011183 -122.698895 -78.195575 -68.058925 -25.511959 89.836238 60.702953 -81.262588 166.08239 -13.984943 -143.882342 0.02139 -1.724941 0.543866 -9.373247 12.724232 -1.66091 23.391296 -36.349093 22.494097 8.170069 -23.97466 10.414001 -179.997787 75.748155 -0.002284 150.519327 5.421241 94.900675 63.190969 2.157033 -81.223706 -115.426529 -29.525332 23.88219 -179.998058 75.749345 -0.002003 -132.609604 75.210128 -46.209613 -1.002533 51.392534 144.80248 -36.968571 -19.166381 -120.841808
0.8593999999999999 57.032700000000006 -1.7343000000000002 171.702998 1.514802 -177.423367 -16.038628 9.062564 -118.719139 3.640234 6.501581 123.951628 -13.948713 32.536159 -113.226395 37.377898 24.912133 69.27723 0.00013 0.0 0.003524 -0.001054 0.0 -0.004311 -155.53815 -3.733189 161.885242 -100.55749 -71.516671 -83.741842 151.994631 -49.769707 -170.932732 -22.823753 63.580736 12.563129 -169.319099 -7.00097 89.92268 -71.43744 1.446996 22.480641 54.897945 -68.588529 11.306954 -70.021926 52.975591 58.344612 2.100599 -6.305424 -1.080284 -34.388111 55.16009 28.964241 -0.022247 -1.725229 -0.541975 -49.624154 77.901917 63.023215 6.228759 18.789227 5.575697 -40.530025 -49.903799 -40.45951 14.148354 43.061507 -15.996735 115.641851 -71.541133 -157.339631 70.832089 28.762936 168.950852 -22.633324 -66.645183 -9.025888 179.374229 -16.876862 -89.358824 54.227506 -7.261556 -8.509966 -174.3805 -63.059616 -113.272094 129.970029 30.5376 -107.424418 125.643004 49.839203 -115.273193 -29.944222 -60.086497 -6.874063 -0.000907 0.063857 -0.019931 61.436022 -86.806191 82.979526 -12.251089 41.425094 -10.281302 23.588737 -39.935321 23.706698 -0.00269 0.000445 -0.00269 -56.248488 -56.404077 -127.754177 -64.310149 9.826793 114.170693 -59.871717 10.35337 13.26625 -179.992874 75.750388 -0.004876 -132.808902 74.007551 -180.0 -30.594267 -39.578284 20.396385 -171.695997 12.944284 -143.735406
1.0782999999999998 56.7851 -2.0282999999999998 171.536875 1.597378 -177.422231 -15.985789 9.675947 -97.928486 6.500374 4.591957 103.356454 6.447467 27.11545 101.511605 -35.420011 17.240342 -135.332382 -0.000905 -0.0 0.001498 -0.000905 -0.0 0.001498 0.023445 -0.138724 -0.029864 -136.56454 -13.603725 148.397205 154.067982 37.114063 -129.001697 -30.215369 68.867399 18.594343 -78.030689 38.689272 42.412633 -138.720269 -26.909288 82.750968 -46.20909 39.652078 36.318966 -172.391052 -23.055967 111.458611 -160.674103 -6.667342 143.246467 145.901357 -73.866195 113.914542 -145.121595 2.055132 -179.77374 11.047974 13.767543 -7.370549 -43.365039 -47.545937 -42.162143 -146.155215 10.650278 -142.897722 155.716345 -4.925006 -162.136703 86.917328 25.191118 -45.001126 2.311445 -28.191005 139.019809 178.090619 -9.313931 -143.330779 169.319125 -7.00119 -89.921349 -59.079663 -67.140878 -45.68253 151.352112 -17.15819 -121.134344 47.473755 55.17519 -32.824641 170.280913 -36.723212 -145.34126 172.394676 -31.343665 -143.685692 145.009754 -5.006238 177.548427 -11.988751 58.778584 1.640451 54.048094 -50.328555 52.729332 146.131908 10.707717 142.785388 -179.999307 75.750966 -0.000474 150.122095 4.533415 86.89773 78.246837 10.085615 100.669907 103.435939 20.224382 -168.343295 179.99999 75.749776 -0.0 -127.192562 76.365888 -51.79823 1.404089 39.620358 39.896493 -64.066903 -13.565614 -8.404479
1.2895 56.5503 -2.2519 171.557235 1.719477 -177.307549 -18.388923 7.362684 -180.0 -6.021923 4.822722 -173.820022 -15.803476 27.915697 -83.15072 39.463806 7.260234 44.598411 0.001167 0.0 0.000162 0.001167 0.0 0.000162 -155.716822 -4.925285 162.13574 152.409788 41.68623 -162.748629 -9.297231 29.93464 41.677686 -3.906522 29.078259 2.66114 177.52595 -19.766767 88.835522 103.996991 -71.169915 80.001439 -14.229034 19.203471 9.559141 -168.215673 -19.834804 109.952592 -125.64437 49.839721 115.273509 3.610272 -0.585495 0.169939 -0.02027 -1.72493 -0.543966 -156.390523 -27.670514 175.093476 -124.850624 -29.039188 -122.622612 17.983631 45.643297 6.625263 14.147577 43.061771 -15.995808 94.371827 -9.620773 -169.713245 -1.687661 -0.585723 136.086666 176.707017 -5.014448 -142.985224 95.360965 37.751309 -54.682821 153.969146 -29.532683 -79.215955 140.761578 1.379872 -116.228754 14.752084 36.453108 -3.934882 82.84165 61.110603 -74.531798 161.97073 -1.456376 -142.785866 70.379235 -72.130099 87.280028 150.642531 -14.365742 -178.149426 144.781954 10.846167 141.477208 126.548134 -29.680323 124.094324 -0.044675 -0.001074 -0.033506 -57.82541 -55.476128 -53.257369 5.830436 73.452171 108.667331 -158.332188 65.458012 92.937265 -0.044675 -0.001074 -0.033506 12.139736 4.808173 -101.455308 -42.408341 -18.302837 5.442673 109.551315 -36.38339 179.890844
1.4964 56.349700000000006 -2.4584 171.582663 1.802738 -177.179888 -16.110068 10.201591 -74.703874 8.448706 1.533074 80.426683 2.751313 19.384765 52.843933 -28.364075 -12.053585 -94.351508 0.000317 0.0 0.002948 0.000317 0.0 0.002948 -149.905175 22.422159 154.976359 157.461375 -14.04043 179.904414 173.801713 7.479982 110.634148 160.177608 -28.173323 142.658266 -87.917539 38.514962 49.436626 -31.875479 -5.178801 37.204256 -64.085174 43.040425 52.301684 -86.975092 50.939012 63.836499 -160.098776 -4.90109 142.968782 92.057556 -78.190109 63.062813 0.001232 -0.06072 -0.019973 7.448966 26.544647 4.024161 -146.183844 15.333026 -142.710313 -76.299642 -52.928109 -75.869226 28.703433 57.498234 -31.081457 -70.291425 19.747155 -28.506831 76.304467 -32.457007 -61.088303 -23.974195 -67.579487 -10.13537 -114.538358 -50.245391 -55.722315 16.092549 -57.252989 31.362113 -12.218084 -21.784311 5.119773 85.190205 47.7564 -68.772076 82.841031 61.111083 -74.532052 -3.626201 -0.580102 -0.082688 69.297205 72.945937 -87.01748 158.764486 -27.560289 -179.971068 -12.990713 44.34398 -10.76051 127.86429 -30.8909 125.367158 0.000722 -0.001566 0.0 -62.058142 -56.752128 113.921311 34.348697 -63.504875 -151.342959 151.949209 -26.78469 -20.662806 0.000722 -0.001566 -0.0 12.309325 5.094141 -100.042753 -37.378842 -12.348377 70.135684 -130.625866 -76.302867 -46.240669
1.6816999999999998 56.1837 -2.6484 171.566606 1.84388 -177.138296 -16.286144 10.13713 -74.616976 8.445016 1.595069 80.366383 -15.779885 26.848876 -76.673277 39.063834 3.489904 39.160268 0.003602 0.0 0.003539 0.002918 0.0 0.000457 3.541516 -62.053088 -13.039234 -127.356704 -3.148728 -172.620181 82.794389 46.94171 -128.544567 175.777367 15.541239 150.221325 114.537808 -50.244345 55.721796 -18.006866 -49.709167 -28.949368 -140.165062 2.325985 115.877043 -63.59739 56.77412 45.587239 -160.573473 -6.359363 143.198016 -5.105594 21.250951 4.819119 -145.117889 0.185737 -179.186209 -71.140348 87.697132 84.413813 -86.172048 -50.467844 -84.539776 -146.948719 13.27355 -143.018386 -0.163321 -0.99005 0.218338 -101.0667 42.933095 43.827077 161.481651 13.824098 -37.679125 -179.346351 -18.502196 -143.784151 97.282644 37.46213 -56.024956 -107.844287 -51.626095 -48.860762 -88.792715 -75.49826 -40.050079 -27.632454 -19.519007 6.973498 0.339245 0.981952 -0.189891 -91.952087 -78.576676 -62.950466 145.101904 -1.437641 178.675099 54.612236 87.581984 -67.942013 145.174031 12.067935 141.822057 21.359064 -36.807771 22.933977 0.002453 2.6e-05 -0.0 -59.12507 -55.694641 -54.732071 6.810944 74.935008 109.858585 -128.492077 -40.374558 135.112826 179.999242 75.750588 -0.0 -130.024604 75.140235 129.067782 12.108185 -39.457199 141.685146 21.607287 -17.468791 83.684516
